# xmcd
#
# Track frame offsets:
#	150
#	21032
#	37535
#	53537
#	70925
#	87555
#	104117
#	123827
#	145455
#	163345
#
# Disc length: 2423 seconds
#
# Revision: 1
# Processed by: cddbd v1.5.2PL0 Copyright (c) Steve Scherf et al.
# Submitted via: audiograbber 1.83.01
#
DISCID=8509750a
DTITLE=Dianne Rhodes - Original British Country Dianne Rhodes
DYEAR=1998
DGENRE=Country
TTITLE0=I Don´t Need You
TTITLE1=If You´ve Ever Been In Love Before
TTITLE2=Fantasy
TTITLE3=Painted Faces, Painted Smiles
TTITLE4=48 Hours
TTITLE5=Togther
TTITLE6=Sonny Blue
TTITLE7=Jimmy
TTITLE8=There´s A Better World
TTITLE9=I´m Gonna Break Away
EXTD=
EXTT0=
EXTT1=
EXTT2=
EXTT3=
EXTT4=
EXTT5=
EXTT6=
EXTT7=
EXTT8=
EXTT9=
PLAYORDER=
